<svg width="480" height="492" viewBox="0 0 480 492" fill="none" xmlns="http://www.w3.org/2000/svg">
<path opacity="0.0344828" d="M61.5493 114.781C63.7523 112.155 67.0996 110.493 71.5898 109.819C76.0883 109.145 81.6707 109.475 88.2241 110.784C101.33 113.404 118.111 119.899 137.442 129.733C176.089 149.394 224.728 182.297 274.177 223.79C323.626 265.283 364.475 307.469 390.548 342.115C403.59 359.444 412.9 374.843 417.756 387.294C420.184 393.521 421.478 398.961 421.595 403.508C421.711 408.047 420.655 411.633 418.452 414.258C416.249 416.883 412.902 418.546 408.412 419.219C403.913 419.894 398.331 419.564 391.777 418.254C378.672 415.635 361.89 409.14 342.559 399.306C303.912 379.645 255.274 346.742 205.825 305.249C156.376 263.756 115.526 221.57 89.4532 186.924C76.4116 169.595 67.1011 154.196 62.2456 141.744C59.8177 135.518 58.5234 130.078 58.4067 125.53C58.2903 120.991 59.3462 117.406 61.5493 114.781Z" stroke="black" stroke-width="2"/>
<path opacity="0.0689655" d="M75.2781 97.9304C77.7015 95.507 81.1811 94.1426 85.7129 93.863C90.253 93.5829 95.7854 94.3981 102.2 96.2741C115.027 100.026 131.179 107.959 149.579 119.44C186.366 142.395 231.951 179.412 277.596 225.056C323.24 270.701 360.257 316.287 383.212 353.073C394.693 371.474 402.626 387.625 406.378 400.453C408.254 406.867 409.069 412.399 408.789 416.939C408.51 421.471 407.145 424.951 404.722 427.374C402.298 429.798 398.819 431.162 394.287 431.442C389.747 431.722 384.214 430.906 377.8 429.03C364.973 425.279 348.821 417.346 330.421 405.864C293.634 382.91 248.049 345.893 202.404 300.248C156.759 254.603 119.743 209.018 96.7881 172.231C85.3066 153.831 77.3736 137.68 73.6218 124.852C71.7457 118.438 70.9306 112.905 71.2106 108.365C71.4902 103.833 72.8546 100.354 75.2781 97.9304Z" stroke="black" stroke-width="2"/>
<path opacity="0.103448" d="M90.2613 82.3327C92.8867 80.1297 96.4719 79.0737 101.011 79.1902C105.558 79.3069 110.998 80.6011 117.225 83.0291C129.677 87.8846 145.075 97.1951 162.405 110.237C197.051 136.31 239.237 177.159 280.729 226.608C322.222 276.057 355.125 324.696 374.786 363.343C384.62 382.674 391.115 399.455 393.735 412.561C395.045 419.114 395.375 424.697 394.7 429.195C394.026 433.685 392.364 437.033 389.738 439.236C387.113 441.439 383.528 442.495 378.989 442.378C374.442 442.262 369.001 440.967 362.775 438.539C350.323 433.684 334.925 424.373 317.595 411.332C282.949 385.258 240.763 344.409 199.27 294.96C157.778 245.511 124.875 196.873 105.214 158.225C95.3796 138.895 88.8844 122.113 86.2649 109.008C84.955 102.454 84.6251 96.8718 85.2999 92.3733C85.9733 87.8831 87.6358 84.5357 90.2613 82.3327Z" stroke="black" stroke-width="2"/>
<path opacity="0.137931" d="M106.385 68.0932C109.192 66.1274 112.856 65.3879 117.367 65.8995C121.887 66.4121 127.194 68.1756 133.185 71.1369C145.166 77.0592 159.694 87.6764 175.821 102.179C208.063 131.172 246.528 175.543 283.553 228.42C320.579 281.297 349.117 332.618 365.335 372.832C373.447 392.947 378.455 410.23 379.922 423.514C380.656 430.157 380.498 435.747 379.434 440.169C378.371 444.584 376.424 447.773 373.616 449.739C370.809 451.705 367.145 452.444 362.633 451.933C358.114 451.42 352.807 449.657 346.816 446.695C334.835 440.773 320.306 430.156 304.179 415.654C271.937 386.66 233.472 342.29 196.447 289.412C159.422 236.535 130.883 185.214 114.666 145C106.554 124.886 101.546 107.602 100.079 94.3182C99.3449 87.6756 99.5028 82.0857 100.567 77.6631C101.629 73.2487 103.577 70.059 106.385 68.0932Z" stroke="black" stroke-width="2"/>
<path opacity="0.172414" d="M123.524 55.3064C126.492 53.5927 130.206 53.1754 134.656 54.0782C139.114 54.9828 144.247 57.2021 149.957 60.6743C161.376 67.6183 174.924 79.4613 189.726 95.3139C219.318 127.007 253.769 174.561 286.045 230.464C318.321 286.367 342.278 339.98 354.929 381.455C361.257 402.2 364.74 419.854 365.043 433.215C365.195 439.896 364.551 445.451 363.105 449.764C361.662 454.069 359.444 457.077 356.476 458.791C353.508 460.504 349.794 460.922 345.344 460.019C340.886 459.114 335.753 456.895 330.043 453.423C318.623 446.479 305.076 434.636 290.274 418.783C260.682 387.09 226.23 339.536 193.955 283.633C161.679 227.73 137.722 174.117 125.071 132.643C118.743 111.898 115.26 94.2435 114.956 80.882C114.804 74.2007 115.449 68.6458 116.894 64.3329C118.337 60.0278 120.556 57.02 123.524 55.3064Z" stroke="black" stroke-width="2"/>
<path opacity="0.206897" d="M141.551 44.0545C144.657 42.6061 148.393 42.514 152.747 43.8013C157.109 45.0909 162.029 47.7491 167.415 51.7058C178.186 59.6186 190.65 72.5973 204.014 89.6797C230.731 123.832 260.907 174.207 288.187 232.711C315.468 291.214 334.661 346.711 343.65 389.13C348.145 410.348 350.076 428.238 349.214 441.575C348.783 448.244 347.657 453.722 345.841 457.892C344.028 462.055 341.556 464.858 338.45 466.307C335.344 467.755 331.607 467.847 327.253 466.56C322.891 465.27 317.971 462.612 312.585 458.655C301.815 450.743 289.351 437.764 275.987 420.681C249.27 386.53 219.094 336.154 191.813 277.651C164.533 219.147 145.339 163.65 136.351 121.231C131.855 100.014 129.925 82.1232 130.786 68.7861C131.217 62.117 132.344 56.6394 134.16 52.4688C135.972 48.306 138.444 45.5029 141.551 44.0545Z" stroke="black" stroke-width="2"/>
<path opacity="0.241379" d="M160.326 34.4089C163.546 33.2367 167.276 33.4707 171.502 35.1325C175.735 36.7974 180.404 39.8743 185.425 44.2854C195.465 53.1068 206.75 67.1224 218.574 85.3045C242.213 121.655 267.884 174.469 289.962 235.127C312.04 295.786 326.323 352.744 331.58 395.785C334.21 417.314 334.574 435.305 332.553 448.516C331.542 455.122 329.943 460.481 327.77 464.477C325.602 468.466 322.895 471.043 319.674 472.215C316.453 473.387 312.723 473.154 308.498 471.492C304.265 469.827 299.595 466.75 294.575 462.339C284.535 453.517 273.249 439.502 261.425 421.32C237.786 384.969 212.116 332.155 190.038 271.497C167.96 210.838 153.676 153.88 148.419 110.839C145.79 89.3102 145.426 71.3195 147.447 58.1082C148.457 51.5021 150.057 46.1435 152.229 42.1471C154.398 38.158 157.105 35.5811 160.326 34.4089Z" stroke="black" stroke-width="2"/>
<path opacity="0.275862" d="M179.708 26.4312C183.018 25.5442 186.714 26.1023 190.778 28.1261C194.85 30.1536 199.234 33.6258 203.851 38.4576C213.084 48.1206 223.105 63.0664 233.299 82.2098C253.68 120.482 274.65 175.333 291.357 237.684C308.064 300.036 317.329 358.023 318.815 401.358C319.558 423.034 318.352 440.988 315.188 453.973C313.605 460.466 311.545 465.665 309.032 469.457C306.524 473.241 303.603 475.573 300.292 476.46C296.982 477.347 293.286 476.789 289.222 474.765C285.15 472.737 280.766 469.265 276.149 464.433C266.916 454.77 256.895 439.825 246.701 420.681C226.32 382.409 205.35 327.558 188.643 265.206C171.936 202.855 162.671 144.868 161.186 101.533C160.442 79.8567 161.648 61.9028 164.812 48.9179C166.395 42.4249 168.455 37.2261 170.968 33.4343C173.476 29.6494 176.397 27.3183 179.708 26.4312Z" stroke="black" stroke-width="2"/>
<path opacity="0.310345" d="M199.548 20.1648C202.923 19.5696 206.556 20.4478 210.429 22.8181C214.308 25.1928 218.373 29.0338 222.551 34.2496C230.907 44.6805 239.587 60.4428 248.074 80.402C265.042 120.305 281.151 176.774 292.36 240.345C303.569 303.916 307.745 362.489 305.448 405.789C304.3 427.447 301.534 445.228 297.25 457.888C295.107 464.218 292.602 469.217 289.768 472.776C286.94 476.328 283.826 478.395 280.451 478.99C277.076 479.586 273.443 478.707 269.571 476.337C265.691 473.962 261.627 470.121 257.448 464.906C249.092 454.475 240.412 438.712 231.925 418.753C214.957 378.85 198.848 322.381 187.639 258.81C176.43 195.24 172.254 136.666 174.551 93.3661C175.7 71.7079 178.465 53.9273 182.749 41.2677C184.892 34.9373 187.397 29.9379 190.231 26.3795C193.059 22.8276 196.173 20.7599 199.548 20.1648Z" stroke="black" stroke-width="2"/>
<path opacity="0.344828" d="M219.697 15.6444C223.111 15.3457 226.654 16.5371 230.305 19.2359C233.963 21.9397 237.677 26.1203 241.385 31.6804C248.799 42.7999 256.073 59.2588 262.788 79.8816C276.213 121.112 287.34 178.77 292.966 243.076C298.592 307.382 297.647 366.096 291.585 409.031C288.553 430.507 284.248 447.979 278.877 460.217C276.191 466.336 273.259 471.098 270.126 474.396C266.999 477.688 263.717 479.476 260.303 479.775C256.889 480.074 253.346 478.883 249.695 476.184C246.037 473.48 242.323 469.299 238.615 463.739C231.2 452.62 223.927 436.161 217.212 415.538C203.786 374.308 192.66 316.649 187.034 252.344C181.408 188.038 182.353 129.324 188.415 86.3885C191.447 64.9128 195.752 47.441 201.123 35.2029C203.809 29.0833 206.741 24.3213 209.874 21.0234C213.001 17.7315 216.283 15.9431 219.697 15.6444Z" stroke="black" stroke-width="2"/>
<path opacity="0.37931" d="M240 12.8894C243.427 12.8894 246.852 14.385 250.254 17.3918C253.663 20.4041 256.998 24.8925 260.207 30.7546C266.625 42.478 272.436 59.5082 277.328 80.6378C287.109 122.881 293.168 181.29 293.168 245.841C293.168 310.393 287.109 368.801 277.328 411.045C272.436 432.174 266.625 449.204 260.207 460.928C256.998 466.79 253.663 471.278 250.254 474.291C246.852 477.297 243.427 478.793 240 478.793C236.572 478.793 233.147 477.297 229.745 474.291C226.337 471.278 223.001 466.79 219.792 460.928C213.374 449.204 207.563 432.174 202.671 411.045C192.89 368.801 186.831 310.393 186.831 245.841C186.831 181.29 192.89 122.881 202.671 80.6378C207.563 59.5082 213.374 42.478 219.792 30.7546C223.001 24.8925 226.337 20.4041 229.745 17.3918C233.147 14.385 236.572 12.8894 240 12.8894Z" stroke="black" stroke-width="2"/>
<path opacity="0.413793" d="M260.303 11.9074C263.717 12.2061 266.999 13.9946 270.126 17.2864C273.259 20.5844 276.191 25.3464 278.877 31.4659C284.248 43.704 288.553 61.1759 291.585 82.6515C297.647 125.587 298.592 184.301 292.966 248.607C287.34 312.912 276.214 370.571 262.788 411.801C256.073 432.424 248.8 448.883 241.385 460.002C237.677 465.562 233.963 469.743 230.305 472.447C226.654 475.146 223.111 476.337 219.697 476.038C216.283 475.74 213.001 473.951 209.874 470.659C206.741 467.361 203.809 462.599 201.123 456.48C195.752 444.242 191.447 426.77 188.415 405.294C182.353 362.359 181.408 303.645 187.034 239.339C192.66 175.033 203.786 117.375 217.212 76.1447C223.927 55.5218 231.2 39.063 238.615 27.9435C242.323 22.3833 246.037 18.2027 249.695 15.4989C253.346 12.8001 256.889 11.6087 260.303 11.9074Z" stroke="black" stroke-width="2"/>
<path opacity="0.448276" d="M280.452 12.692C283.827 13.2872 286.941 15.3548 289.769 18.9067C292.602 22.4651 295.108 27.4646 297.25 33.7949C301.535 46.4546 304.3 64.2351 305.449 85.8933C307.746 129.193 303.57 187.767 292.361 251.337C281.152 314.908 265.042 371.377 248.074 411.28C239.587 431.24 230.907 447.002 222.551 457.433C218.373 462.649 214.309 466.49 210.429 468.864C206.557 471.235 202.924 472.113 199.548 471.518C196.173 470.923 193.06 468.855 190.232 465.303C187.398 461.745 184.892 456.745 182.75 450.415C178.466 437.755 175.7 419.975 174.551 398.316C172.255 355.016 176.43 296.443 187.639 232.872C198.849 169.302 214.958 112.832 231.926 72.9292C240.413 52.9701 249.093 37.2078 257.449 26.7769C261.627 21.561 265.691 17.72 269.571 15.3453C273.444 12.975 277.077 12.0969 280.452 12.692Z" stroke="black" stroke-width="2"/>
<path opacity="0.482759" d="M300.292 15.2236C303.603 16.1106 306.524 18.4418 309.032 22.2266C311.545 26.0185 313.605 31.2173 315.188 37.7102C318.352 50.6951 319.558 68.649 318.814 90.325C317.329 133.66 308.064 191.647 291.357 253.999C274.65 316.351 253.68 371.201 233.299 409.473C223.105 428.617 213.084 443.563 203.851 453.226C199.234 458.057 194.85 461.53 190.778 463.557C186.714 465.581 183.018 466.139 179.708 465.252C176.397 464.365 173.476 462.034 170.968 458.249C168.455 454.457 166.395 449.258 164.812 442.765C161.648 429.78 160.442 411.827 161.185 390.151C162.671 346.815 171.936 288.829 188.643 226.477C205.35 164.125 226.32 109.275 246.701 71.0022C256.895 51.8587 266.916 36.9129 276.149 27.25C280.766 22.4181 285.15 18.946 289.222 16.9185C293.286 14.8947 296.982 14.3365 300.292 15.2236Z" stroke="black" stroke-width="2"/>
<path opacity="0.517241" d="M319.674 19.4664C322.895 20.6386 325.602 23.2155 327.771 27.2045C329.943 31.201 331.542 36.5595 332.553 43.1657C334.574 56.377 334.21 74.3676 331.58 95.8963C326.323 138.937 312.04 195.896 289.962 256.554C267.884 317.213 242.214 370.027 218.575 406.377C206.751 424.559 195.465 438.575 185.425 447.396C180.405 451.807 175.735 454.884 171.502 456.549C167.277 458.211 163.546 458.445 160.326 457.273C157.105 456.1 154.398 453.524 152.229 449.535C150.057 445.538 148.458 440.18 147.447 433.573C145.426 420.362 145.79 402.371 148.42 380.843C153.677 337.802 167.96 280.843 190.038 220.185C212.116 159.526 237.786 106.713 261.425 70.362C273.249 52.1799 284.535 38.1643 294.575 29.3428C299.595 24.9318 304.265 21.8549 308.498 20.19C312.723 18.5281 316.454 18.2942 319.674 19.4664Z" stroke="black" stroke-width="2"/>
<path opacity="0.551724" d="M338.45 25.376C341.556 26.8244 344.028 29.6275 345.841 33.7903C347.657 37.9609 348.783 43.4385 349.214 50.1076C350.075 63.4447 348.145 81.3352 343.649 102.553C334.661 144.972 315.467 200.469 288.187 258.972C260.906 317.475 230.73 367.851 204.013 402.003C190.649 419.085 178.185 432.064 167.415 439.977C162.029 443.934 157.109 446.592 152.747 447.881C148.393 449.169 144.656 449.077 141.55 447.628C138.444 446.18 135.972 443.377 134.159 439.214C132.343 435.043 131.217 429.566 130.786 422.897C129.924 409.559 131.855 391.669 136.351 370.451C145.339 328.032 164.532 272.535 191.813 214.032C219.093 155.529 249.269 105.153 275.987 71.0012C289.35 53.9188 301.814 40.9401 312.585 33.0273C317.971 29.0706 322.891 26.4124 327.253 25.1228C331.607 23.8355 335.343 23.9276 338.45 25.376Z" stroke="black" stroke-width="2"/>
<path opacity="0.586207" d="M356.475 32.8919C359.444 34.6055 361.662 37.6133 363.105 41.9183C364.551 46.2313 365.195 51.7862 365.043 58.4675C364.739 71.829 361.257 89.4831 354.929 110.228C342.278 151.702 318.32 205.315 286.045 261.218C253.769 317.121 219.318 364.675 189.725 396.369C174.924 412.221 161.376 424.064 149.957 431.008C144.246 434.481 139.113 436.7 134.656 437.604C130.206 438.507 126.492 438.09 123.524 436.376C120.555 434.663 118.337 431.655 116.894 427.35C115.448 423.037 114.804 417.482 114.956 410.801C115.26 397.439 118.742 379.785 125.07 359.04C137.721 317.566 161.679 263.953 193.954 208.05C226.23 152.147 260.681 104.593 290.274 72.8994C305.075 57.0467 318.623 45.2038 330.042 38.2598C335.753 34.7875 340.886 32.5683 345.344 31.6637C349.793 30.7608 353.507 31.1782 356.475 32.8919Z" stroke="black" stroke-width="2"/>
<path opacity="0.62069" d="M373.616 41.9436C376.423 43.9094 378.371 47.0991 379.433 51.5135C380.498 55.936 380.655 61.5259 379.922 68.1686C378.454 81.4528 373.447 98.7362 365.335 118.851C349.117 159.065 320.578 210.385 283.553 263.263C246.528 316.14 208.063 360.51 175.821 389.504C159.694 404.006 145.166 414.624 133.185 420.546C127.193 423.507 121.887 425.271 117.367 425.783C112.855 426.295 109.192 425.555 106.384 423.59C103.577 421.624 101.629 418.434 100.567 414.02C99.5024 409.597 99.3445 404.007 100.078 397.365C101.546 384.08 106.553 366.797 114.665 346.682C130.883 306.469 159.422 255.148 196.447 202.27C233.472 149.393 271.937 105.023 304.179 76.029C320.306 61.5267 334.834 50.9096 346.815 44.9873C352.807 42.0259 358.113 40.2625 362.633 39.7499C367.145 39.2383 370.808 39.9777 373.616 41.9436Z" stroke="black" stroke-width="2"/>
<path opacity="0.655172" d="M389.738 52.4466C392.364 54.6496 394.026 57.997 394.7 62.4872C395.375 66.9856 395.045 72.568 393.735 79.1214C391.115 92.2272 384.62 109.008 374.786 128.339C355.125 166.987 322.222 215.625 280.729 265.074C239.237 314.523 197.051 355.372 162.405 381.446C145.075 394.487 129.677 403.798 117.225 408.653C110.998 411.081 105.558 412.375 101.011 412.492C96.472 412.609 92.8868 411.553 90.2613 409.35C87.6359 407.147 85.9734 403.799 85.2999 399.309C84.6252 394.811 84.9551 389.228 86.2649 382.675C88.8844 369.569 95.3796 352.788 105.214 333.457C124.875 294.809 157.778 246.171 199.27 196.722C240.763 147.273 282.949 106.424 317.595 80.3505C334.925 67.309 350.323 57.9985 362.775 53.143C369.001 50.715 374.442 49.4208 378.989 49.3041C383.528 49.1876 387.113 50.2436 389.738 52.4466Z" stroke="black" stroke-width="2"/>
<path opacity="0.689655" d="M404.722 64.3086C407.146 66.7321 408.51 70.2116 408.79 74.7434C409.07 79.2835 408.255 84.8159 406.379 91.2302C402.627 104.058 394.694 120.209 383.212 138.609C360.258 175.396 323.241 220.982 277.596 266.626C231.952 312.271 186.366 349.288 149.579 372.242C131.179 383.724 115.028 391.657 102.2 395.409C95.7859 397.285 90.2535 398.1 85.7133 397.82C81.1816 397.54 77.702 396.176 75.2786 393.752C72.8551 391.329 71.4907 387.849 71.2111 383.318C70.931 378.777 71.7462 373.245 73.6223 366.831C77.374 354.003 85.3071 337.852 96.7886 319.452C119.743 282.665 156.76 237.079 202.405 191.435C248.049 145.79 293.635 108.773 330.421 85.8186C348.822 74.3371 364.973 66.4041 377.801 62.6523C384.215 60.7762 389.747 59.9611 394.287 60.2412C398.819 60.5207 402.299 61.8851 404.722 64.3086Z" stroke="black" stroke-width="2"/>
<path opacity="0.724138" d="M418.451 77.424C420.654 80.0494 421.71 83.6347 421.593 88.1736C421.477 92.7209 420.182 98.1612 417.754 104.388C412.899 116.839 403.588 132.238 390.547 149.567C364.474 184.213 323.624 226.399 274.175 267.892C224.726 309.385 176.088 342.288 137.441 361.949C118.11 371.783 101.328 378.278 88.2226 380.898C81.6692 382.207 76.0868 382.537 71.5883 381.863C67.0982 381.189 63.7508 379.527 61.5478 376.901C59.3448 374.276 58.2888 370.69 58.4052 366.152C58.5219 361.604 59.8162 356.164 62.2441 349.938C67.0996 337.486 76.4101 322.087 89.4517 304.758C115.525 270.112 156.374 227.926 205.823 186.433C255.272 144.94 303.911 112.037 342.558 92.3765C361.889 82.5423 378.67 76.0471 391.776 73.4276C398.329 72.1177 403.912 71.7879 408.41 72.4626C412.9 73.1361 416.248 74.7985 418.451 77.424Z" stroke="black" stroke-width="2"/>
<path opacity="0.758621" d="M430.823 91.6787C432.789 94.4862 433.528 98.1498 433.017 102.661C432.504 107.181 430.741 112.488 427.779 118.479C421.857 130.46 411.24 144.988 396.738 161.115C367.744 193.357 323.374 231.822 270.496 268.847C217.619 305.873 166.298 334.411 126.084 350.629C105.97 358.741 88.6862 363.749 75.402 365.216C68.7594 365.95 63.1695 365.792 58.7469 364.728C54.3326 363.665 51.1428 361.718 49.177 358.91C47.2112 356.103 46.4717 352.439 46.9833 347.928C47.4959 343.408 49.2594 338.101 52.2208 332.11C58.143 320.129 68.7601 305.6 83.2625 289.473C112.256 257.231 156.626 218.766 209.504 181.741C262.381 144.716 313.702 116.178 353.916 99.9598C374.03 91.8478 391.314 86.84 404.598 85.3727C411.241 84.639 416.831 84.7969 421.253 85.8611C425.667 86.9233 428.857 88.8712 430.823 91.6787Z" stroke="black" stroke-width="2"/>
<path opacity="0.793103" d="M441.742 106.951C443.456 109.919 443.873 113.633 442.97 118.083C442.066 122.541 439.847 127.674 436.374 133.384C429.43 144.803 417.587 158.351 401.735 173.153C370.041 202.745 322.487 237.196 266.584 269.472C210.681 301.748 157.068 325.705 115.594 338.356C94.8491 344.684 77.195 348.166 63.8335 348.47C57.1522 348.622 51.5973 347.978 47.2844 346.532C42.9794 345.089 39.9715 342.871 38.2579 339.903C36.5442 336.935 36.1269 333.22 37.0298 328.771C37.9343 324.313 40.1536 319.18 43.6258 313.47C50.5698 302.05 62.4128 288.502 78.2655 273.701C109.959 244.109 157.513 209.657 213.416 177.381C269.319 145.106 322.932 121.149 364.406 108.497C385.151 102.169 402.805 98.687 416.167 98.3831C422.848 98.2311 428.403 98.8756 432.716 100.321C437.021 101.764 440.029 103.983 441.742 106.951Z" stroke="black" stroke-width="2"/>
<path opacity="0.827586" d="M451.125 123.109C452.574 126.215 452.666 129.951 451.379 134.305C450.089 138.668 447.431 143.588 443.474 148.973C435.561 159.744 422.583 172.208 405.5 185.572C371.348 212.289 320.973 242.465 262.469 269.746C203.966 297.026 148.469 316.22 106.05 325.208C84.8323 329.704 66.9418 331.634 53.6047 330.772C46.9356 330.342 41.458 329.215 37.2874 327.399C33.1246 325.587 30.3216 323.114 28.8731 320.008C27.4247 316.902 27.3326 313.166 28.6199 308.812C29.9095 304.45 32.5677 299.53 36.5244 294.144C44.4373 283.373 57.4159 270.909 74.4983 257.545C108.65 230.828 159.026 200.652 217.529 173.372C276.033 146.091 331.529 126.898 373.949 117.909C395.166 113.413 413.057 111.483 426.394 112.345C433.063 112.776 438.54 113.902 442.711 115.718C446.874 117.53 449.677 120.003 451.125 123.109Z" stroke="black" stroke-width="2"/>
<path opacity="0.862069" d="M458.904 140.017C460.076 143.237 459.842 146.967 458.18 151.193C456.515 155.426 453.438 160.095 449.027 165.116C440.206 175.156 426.19 186.441 408.008 198.265C371.657 221.905 318.843 247.575 258.185 269.653C197.527 291.731 140.568 306.014 97.5272 311.271C75.9985 313.901 58.0079 314.265 44.7966 312.244C38.1904 311.233 32.8318 309.634 28.8354 307.461C24.8464 305.293 22.2695 302.586 21.0973 299.365C19.9251 296.145 20.159 292.414 21.8208 288.189C23.4857 283.956 26.5626 279.286 30.9737 274.266C39.7952 264.226 53.8107 252.94 71.9929 241.116C108.343 217.477 161.157 191.807 221.816 169.729C282.474 147.651 339.433 133.368 382.474 128.111C404.002 125.481 421.993 125.117 435.204 127.138C441.81 128.148 447.169 129.748 451.165 131.92C455.154 134.089 457.731 136.796 458.904 140.017Z" stroke="black" stroke-width="2"/>
<path opacity="0.896552" d="M465.014 157.531C465.901 160.841 465.343 164.537 463.319 168.601C461.292 172.673 457.82 177.057 452.988 181.674C443.325 190.907 428.379 200.928 409.236 211.122C370.963 231.503 316.113 252.473 253.761 269.18C191.409 285.887 133.423 295.152 90.0871 296.638C68.4112 297.381 50.4573 296.175 37.4724 293.011C30.9795 291.428 25.7807 289.368 21.9888 286.855C18.204 284.347 15.8728 281.426 14.9858 278.115C14.0987 274.805 14.6569 271.109 16.6806 267.045C18.7082 262.973 22.1803 258.589 27.0122 253.972C36.6751 244.739 51.6209 234.718 70.7644 224.524C109.037 204.143 163.887 183.173 226.239 166.466C288.591 149.759 346.577 140.494 389.913 139.009C411.589 138.265 429.543 139.471 442.528 142.635C449.021 144.218 454.219 146.278 458.011 148.791C461.796 151.299 464.127 154.22 465.014 157.531Z" stroke="black" stroke-width="2"/>
<path opacity="0.931035" d="M469.413 175.503C470.008 178.879 469.13 182.511 466.76 186.384C464.385 190.264 460.544 194.328 455.328 198.506C444.897 206.862 429.135 215.542 409.176 224.029C369.273 240.997 312.803 257.107 249.233 268.316C185.662 279.525 127.089 283.701 83.7886 281.404C62.1304 280.255 44.3499 277.489 31.6902 273.205C25.3599 271.063 20.3605 268.557 16.802 265.724C13.2502 262.895 11.1825 259.782 10.5874 256.407C9.99222 253.031 10.8703 249.399 13.2406 245.526C15.6153 241.646 19.4563 237.582 24.6722 233.404C35.1031 225.048 50.8654 216.368 70.8245 207.881C110.728 190.913 167.197 174.804 230.768 163.594C294.338 152.385 352.912 148.209 396.212 150.506C417.87 151.655 435.65 154.421 448.31 158.705C454.64 160.847 459.64 163.353 463.198 166.186C466.75 169.015 468.818 172.128 469.413 175.503Z" stroke="black" stroke-width="2"/>
<path opacity="0.965517" d="M472.065 193.785C472.364 197.199 471.172 200.741 468.473 204.393C465.77 208.051 461.589 211.765 456.029 215.472C444.909 222.887 428.451 230.161 407.828 236.876C366.597 250.301 308.939 261.428 244.633 267.054C180.328 272.68 121.613 271.735 78.6782 265.673C57.2025 262.641 39.7307 258.336 27.4926 252.965C21.3731 250.279 16.611 247.347 13.3131 244.214C10.0212 241.087 8.23279 237.805 7.93409 234.391C7.63538 230.977 8.82677 227.434 11.5256 223.783C14.2294 220.125 18.41 216.411 23.9702 212.703C35.0896 205.288 51.5485 198.015 72.1714 191.3C113.402 177.874 171.06 166.748 235.366 161.122C299.671 155.496 358.386 156.441 401.321 162.503C422.796 165.535 440.268 169.84 452.506 175.211C458.626 177.897 463.388 180.829 466.686 183.961C469.978 187.089 471.766 190.37 472.065 193.785Z" stroke="black" stroke-width="2"/>
<path d="M472.952 212.22C472.952 215.647 471.456 219.072 468.449 222.474C465.437 225.883 460.948 229.218 455.086 232.427C443.363 238.845 426.333 244.656 405.203 249.548C362.96 259.329 304.551 265.388 240 265.388C175.448 265.388 117.04 259.329 74.7963 249.548C53.6666 244.656 36.6365 238.845 24.9131 232.427C19.051 229.218 14.5626 225.883 11.5502 222.474C8.54346 219.072 7.04785 215.647 7.04785 212.22C7.04785 208.792 8.54346 205.367 11.5502 201.965C14.5626 198.556 19.051 195.221 24.9131 192.012C36.6365 185.594 53.6666 179.783 74.7963 174.891C117.04 165.11 175.448 159.051 240 159.051C304.551 159.051 362.96 165.11 405.203 174.891C426.333 179.783 443.363 185.594 455.086 192.012C460.948 195.221 465.437 198.556 468.449 201.965C471.456 205.367 472.952 208.792 472.952 212.22Z" stroke="black" stroke-width="2"/>
</svg>
